HIERARCHY
ROOT Hips
{
	OFFSET 0.000000 0.000000 0.000000 
	CHANNELS 6 Xposition Yposition Zposition Yrotation Xrotation Zrotation
	JOINT Spine
	{
		OFFSET 0.000000 0.072080 0.012321 
		CHANNELS 3 Xrotation Yrotation Zrotation
		JOINT Spine1
		{
			OFFSET 0.000000 0.126984 -0.001294 
			CHANNELS 3 Xrotation Yrotation Zrotation
			JOINT Spine2
			{
				OFFSET 0.000000 0.106559 -0.010096 
				CHANNELS 3 Xrotation Yrotation Zrotation
				JOINT Neck
				{
					OFFSET 0.000000 0.108417 -0.034017 
					CHANNELS 3 Xrotation Yrotation Zrotation
					JOINT Neck1
					{
						OFFSET 0.000000 0.033906 0.007241 
						CHANNELS 3 Xrotation Yrotation Zrotation
						JOINT Head
						{
							OFFSET 0.000000 0.031458 0.006707 
							CHANNELS 3 Xrotation Yrotation Zrotation
							End Site
							{
								OFFSET 0.000000 0.179920 0.000962 
							}
						}
					}
				}
				JOINT LeftShoulder
				{
					OFFSET 0.048002 0.079586 -0.029634 
					CHANNELS 3 Zrotation Xrotation Yrotation
					JOINT LeftArm
					{
						OFFSET 0.096243 -0.008695 -0.014012 
						CHANNELS 3 Zrotation Xrotation Yrotation
						JOINT LeftForeArm
						{
							OFFSET 0.216305 0.000000 0.000000 
							CHANNELS 3 Xrotation Zrotation Yrotation
							JOINT LeftHand
							{
								OFFSET 0.217764 0.000000 0.000000 
								CHANNELS 3 Zrotation Yrotation Xrotation
								JOINT LeftHandThumb1
								{
									OFFSET 0.018582 -0.007835 0.020476 
									CHANNELS 3 Zrotation Xrotation Yrotation
									JOINT LeftHandThumb2
									{
										OFFSET 0.026269 -0.007835 0.022186 
										CHANNELS 3 Zrotation Xrotation Yrotation
										JOINT LeftHandThumb3
										{
											OFFSET 0.035170 -0.010504 0.017018 
											CHANNELS 3 Zrotation Xrotation Yrotation
											End Site
											{
												OFFSET 0.020312 -0.007813 0.007813 
											}
										}
									}
								}
								JOINT LeftHandMiddle1
								{
									OFFSET 0.081749 0.004803 0.003358 
									CHANNELS 3 Zrotation Xrotation Yrotation
									JOINT LeftHandMiddle2
									{
										OFFSET 0.045251 0.000000 0.000000 
										CHANNELS 3 Zrotation Xrotation Yrotation
										JOINT LeftHandMiddle3
										{
											OFFSET 0.029009 0.000000 0.000000 
											CHANNELS 3 Zrotation Xrotation Yrotation
											End Site
											{
												OFFSET 0.017969 0.000000 0.000000 
											}
										}
									}
								}
								JOINT LeftHandIndex1
								{
									OFFSET 0.081207 0.004803 0.021137 
									CHANNELS 3 Zrotation Xrotation Yrotation
									JOINT LeftHandIndex2
									{
										OFFSET 0.043354 0.000000 0.000000 
										CHANNELS 3 Zrotation Xrotation Yrotation
										JOINT LeftHandIndex3
										{
											OFFSET 0.026493 0.000000 0.000000 
											CHANNELS 3 Zrotation Xrotation Yrotation
											End Site
											{
												OFFSET 0.019531 0.000000 0.000000 
											}
										}
									}
								}
								JOINT LeftHandRing1
								{
									OFFSET 0.080666 0.002509 -0.014652 
									CHANNELS 3 Zrotation Xrotation Yrotation
									JOINT LeftHandRing2
									{
										OFFSET 0.042541 0.000000 0.000000 
										CHANNELS 3 Zrotation Xrotation Yrotation
										JOINT LeftHandRing3
										{
											OFFSET 0.029009 0.000000 0.000000 
											CHANNELS 3 Zrotation Xrotation Yrotation
											End Site
											{
												OFFSET 0.015625 0.000000 0.000000 
											}
										}
									}
								}
								JOINT LeftHandPinky1
								{
									OFFSET 0.078227 -0.000612 -0.030993 
									CHANNELS 3 Zrotation Xrotation Yrotation
									JOINT LeftHandPinky2
									{
										OFFSET 0.028721 0.000000 0.000000 
										CHANNELS 3 Zrotation Xrotation Yrotation
										JOINT LeftHandPinky3
										{
											OFFSET 0.021963 0.000000 0.000000 
											CHANNELS 3 Zrotation Xrotation Yrotation
											End Site
											{
												OFFSET 0.022656 0.000000 0.000000 
											}
										}
									}
								}
							}
						}
					}
				}
				JOINT RightShoulder
				{
					OFFSET -0.047970 0.079586 -0.029634 
					CHANNELS 3 Zrotation Xrotation Yrotation
					JOINT RightArm
					{
						OFFSET -0.096274 -0.008695 -0.014012 
						CHANNELS 3 Zrotation Xrotation Yrotation
						JOINT RightForeArm
						{
							OFFSET -0.216305 0.000000 0.000000 
							CHANNELS 3 Xrotation Zrotation Yrotation
							JOINT RightHand
							{
								OFFSET -0.217764 0.000000 0.000000 
								CHANNELS 3 Zrotation Yrotation Xrotation
								JOINT RightHandThumb1
								{
									OFFSET -0.019670 -0.007318 0.019638 
									CHANNELS 3 Zrotation Xrotation Yrotation
									JOINT RightHandThumb2
									{
										OFFSET -0.025498 -0.008492 0.023179 
										CHANNELS 3 Zrotation Xrotation Yrotation
										JOINT RightHandThumb3
										{
											OFFSET -0.034504 -0.010705 0.016680 
											CHANNELS 3 Zrotation Xrotation Yrotation
											End Site
											{
												OFFSET -0.020312 -0.007813 0.007813 
											}
										}
									}
								}
								JOINT RightHandIndex1
								{
									OFFSET -0.081770 0.003825 0.021187 
									CHANNELS 3 Zrotation Xrotation Yrotation
									JOINT RightHandIndex2
									{
										OFFSET -0.042006 0.000000 0.000000 
										CHANNELS 3 Zrotation Xrotation Yrotation
										JOINT RightHandIndex3
										{
											OFFSET -0.026449 0.000000 0.000000 
											CHANNELS 3 Zrotation Xrotation Yrotation
											End Site
											{
												OFFSET -0.020312 0.000000 0.000000 
											}
										}
									}
								}
								JOINT RightHandMiddle1
								{
									OFFSET -0.084059 0.003825 0.003342 
									CHANNELS 3 Zrotation Xrotation Yrotation
									JOINT RightHandMiddle2
									{
										OFFSET -0.043881 0.000000 0.000000 
										CHANNELS 3 Zrotation Xrotation Yrotation
										JOINT RightHandMiddle3
										{
											OFFSET -0.029191 0.000000 0.000000 
											CHANNELS 3 Zrotation Xrotation Yrotation
											End Site
											{
												OFFSET -0.017969 0.000000 0.000000 
											}
										}
									}
								}
								JOINT RightHandRing1
								{
									OFFSET -0.081798 0.003030 -0.015127 
									CHANNELS 3 Zrotation Xrotation Yrotation
									JOINT RightHandRing2
									{
										OFFSET -0.042198 0.000000 0.000000 
										CHANNELS 3 Zrotation Xrotation Yrotation
										JOINT RightHandRing3
										{
											OFFSET -0.026497 0.000000 0.000000 
											CHANNELS 3 Zrotation Xrotation Yrotation
											End Site
											{
												OFFSET -0.017188 0.000000 0.000000 
											}
										}
									}
								}
								JOINT RightHandPinky1
								{
									OFFSET -0.077902 -0.000930 -0.030891 
									CHANNELS 3 Zrotation Xrotation Yrotation
									JOINT RightHandPinky2
									{
										OFFSET -0.028538 0.000000 0.000000 
										CHANNELS 3 Zrotation Xrotation Yrotation
										JOINT RightHandPinky3
										{
											OFFSET -0.021734 0.000000 0.000000 
											CHANNELS 3 Zrotation Xrotation Yrotation
											End Site
											{
												OFFSET -0.022656 0.000000 0.000000 
											}
										}
									}
								}
							}
						}
					}
				}
			}
		}
	}
	JOINT LeftUpLeg
	{
		OFFSET 0.075264 -0.025573 0.000000 
		CHANNELS 3 Xrotation Yrotation Zrotation
		JOINT LeftLeg
		{
			OFFSET 0.000000 -0.326016 -0.013516 
			CHANNELS 3 Xrotation Yrotation Zrotation
			JOINT LeftFoot
			{
				OFFSET 0.000098 -0.306172 -0.006623 
				CHANNELS 3 Xrotation Yrotation Zrotation
				JOINT LeftToeBase
				{
					OFFSET -0.001432 -0.095259 0.064705 
					CHANNELS 3 Xrotation Yrotation Zrotation
					End Site
					{
						OFFSET 0.000000 0.000000 0.079438 
					}
				}
			}
		}
	}
	JOINT RightUpLeg
	{
		OFFSET -0.075264 -0.025573 0.000000 
		CHANNELS 3 Xrotation Yrotation Zrotation
		JOINT RightLeg
		{
			OFFSET 0.000000 -0.326016 -0.013516 
			CHANNELS 3 Xrotation Yrotation Zrotation
			JOINT RightFoot
			{
				OFFSET 0.000098 -0.306172 -0.006623 
				CHANNELS 3 Xrotation Yrotation Zrotation
				JOINT RightToeBase
				{
					OFFSET -0.001432 -0.095259 0.064705 
					CHANNELS 3 Xrotation Yrotation Zrotation
					End Site
					{
						OFFSET 0.000025 0.000000 0.079438 
					}
				}
			}
		}
	}
}
MOTION
Frames: 5
Frame Time: 0.033333
-0.109642 0.737545 0.638541 -23.722099 -3.833900 2.525800 5.629900 1.326800 0.077400 0.395300 0.361000 -0.178700 0.395700 0.363500 -0.180100 -1.669500 -0.668500 -0.688300 -0.000000 0.000000 -0.000000 -1.335200 -8.989000 3.379100 -18.465000 0.226900 2.652600 -63.148499 -0.485600 7.707400 -0.000000 0.000000 -10.383400 -5.191000 -1.283600 15.334500 3.827700 -2.715700 4.256200 3.189500 7.513400 8.966600 21.725901 -13.482700 -31.463301 -31.194599 0.002600 1.799900 -36.973301 0.003000 -0.009000 -14.647400 0.000500 -0.003800 -17.451799 0.068600 -1.373300 -40.571899 0.003600 -0.009800 -18.348301 0.000800 -0.004700 -39.489101 0.004000 4.832600 -32.814899 0.002400 -0.008100 -17.029900 0.000700 -0.004400 -41.681801 -0.303800 1.791600 -38.571499 0.003300 -0.009400 -25.775499 0.001500 -0.006600 18.861900 1.377600 1.909600 56.254101 10.592400 11.500400 0.000000 0.000000 14.865400 0.827600 5.037300 -5.102100 -8.020300 2.296400 -6.151300 7.133700 9.934400 -9.069700 -21.515301 -20.162701 12.251500 23.943399 0.005000 3.984900 29.340000 0.001000 0.003900 15.651300 0.000300 0.002100 34.375198 0.001600 -0.468000 31.299500 0.001200 0.004100 21.364599 0.000500 0.002900 35.721600 0.001700 -2.926800 41.485500 0.002000 0.005200 16.205400 0.000300 0.002200 31.775400 -0.190700 -0.681000 28.286699 0.001000 0.003700 20.214001 0.000500 0.002700 -23.643499 4.540300 4.343700 49.088001 3.146300 2.009300 -2.261400 0.226200 -5.841200 -3.076100 0.000000 -0.000000 -6.646600 -4.700700 6.595300 25.475901 7.245600 -1.581200 -10.025700 1.775800 -10.296500 -4.068300 -0.000000 -0.000000 
-0.117667 0.736295 0.669381 -25.307699 -3.495900 2.331800 5.567200 1.802300 0.097800 0.396700 0.483300 -0.161500 0.397300 0.485300 -0.163200 -1.723300 -0.704700 -0.655000 -0.000000 0.000000 -0.000000 -2.010100 -8.983500 3.054400 -18.107599 0.187900 2.799100 -64.360397 -1.642300 10.942000 -0.000000 0.000000 -9.144000 -6.323700 -0.037200 16.463400 3.827700 -2.715700 4.256200 3.824300 7.214400 7.735900 21.795799 -13.499700 -31.596399 -30.860500 0.002500 2.100700 -36.926201 0.003000 -0.009000 -14.663300 0.000500 -0.003800 -17.232401 0.103300 -1.099300 -40.317799 0.003600 -0.009800 -18.322701 0.000800 -0.004700 -39.491199 0.003900 5.154800 -32.534801 0.002400 -0.008100 -17.050400 0.000700 -0.004400 -41.309502 -0.389000 2.369100 -38.560200 0.003300 -0.009400 -25.718000 0.001500 -0.006500 18.850201 1.523000 2.484800 53.554100 11.312400 15.631900 0.000000 -0.000000 18.365000 -0.832900 6.567100 -8.800300 -8.020300 2.296400 -6.151300 7.115900 9.929900 -9.037200 -21.384600 -20.043900 12.213400 24.210800 0.005000 4.102800 29.339899 0.001000 0.003900 15.726200 0.000300 0.002200 34.577400 0.001600 -0.348600 31.355700 0.001200 0.004100 21.393101 0.000500 0.002900 35.916000 0.001700 -2.804300 41.751499 0.002000 0.005300 16.186800 0.000300 0.002200 31.802200 -0.198800 -0.559500 28.394699 0.001000 0.003800 20.252701 0.000500 0.002700 -25.919201 4.310400 5.074300 39.325802 5.523200 2.418000 -1.737300 0.242000 -6.555900 -2.283100 -0.000000 -0.000000 -3.918000 -5.260500 6.090700 25.382500 9.531600 -1.632200 -12.364500 2.175500 -10.553900 -4.677200 0.000000 0.000000 
-0.125902 0.733162 0.699661 -26.720699 -3.028100 1.931600 5.434300 2.157300 0.246000 0.383100 0.571700 -0.103900 0.384500 0.572700 -0.105600 -1.810600 -0.739200 -0.591700 -0.000000 0.000000 -0.000000 -2.653600 -8.927100 2.784100 -17.787901 0.154300 2.927900 -65.248802 -2.546600 13.629800 -0.000000 0.000000 -7.722300 -6.915300 1.149700 18.104401 3.827700 -2.715800 4.256200 4.552400 6.865600 6.296600 22.099600 -13.563300 -31.987600 -30.442499 0.002500 2.489600 -36.807098 0.003000 -0.009000 -14.668000 0.000500 -0.003800 -17.259199 0.134900 -0.852200 -39.854401 0.003500 -0.009600 -18.322201 0.000800 -0.004700 -39.481499 0.004000 5.512300 -32.279900 0.002300 -0.008000 -17.069201 0.000700 -0.004400 -40.881001 -0.473600 2.938200 -38.605999 0.003300 -0.009400 -25.678900 0.001500 -0.006500 18.862499 1.696100 3.163400 50.898899 11.289000 19.332500 -0.000000 0.000000 21.771999 -2.266500 7.388100 -11.378000 -8.020300 2.296400 -6.151300 7.121300 9.931000 -9.048300 -21.313400 -19.974300 12.191100 24.433201 0.005000 4.225600 29.339701 0.001000 0.003900 15.806700 0.000300 0.002200 34.730000 0.001600 -0.236300 31.394501 0.001200 0.004100 21.420799 0.000500 0.002900 36.074100 0.001700 -2.676900 41.838100 0.002000 0.005300 16.187000 0.000300 0.002200 31.792700 -0.207800 -0.435100 28.394899 0.000900 0.003800 20.261999 0.000500 0.002700 -26.154200 4.356900 5.960400 25.396099 7.680200 3.036900 0.536100 0.383900 -7.093600 -2.046400 0.000000 -0.000000 -1.361500 -5.603000 5.690800 25.204901 9.938100 -1.565800 -14.963000 4.035500 -10.566700 -5.560500 0.000000 -0.000000 
-0.134877 0.727668 0.729867 -27.991301 -2.234500 1.240700 4.866200 2.380800 0.587800 0.382700 0.620700 -0.018400 0.385500 0.619500 -0.018700 -1.927800 -0.754900 -0.547400 -0.000000 0.000000 -0.000000 -3.123600 -8.875900 2.790600 -17.710501 0.101800 3.146800 -65.629402 -3.314300 15.739400 0.000000 -0.000000 -6.384800 -7.187400 2.535600 20.696501 3.827700 -2.715800 4.256200 5.114200 6.592300 5.163700 22.209101 -13.588100 -32.170399 -30.225100 0.002500 2.779400 -36.696602 0.003000 -0.009000 -14.669700 0.000500 -0.003800 -17.437000 0.161400 -0.641600 -39.802101 0.003500 -0.009600 -18.289900 0.000800 -0.004700 -39.607498 0.004000 5.746500 -32.190102 0.002300 -0.008000 -17.028200 0.000700 -0.004400 -40.602100 -0.545100 3.411900 -38.642899 0.003300 -0.009400 -25.643400 0.001500 -0.006500 18.848600 1.811200 3.620600 48.460499 10.911300 22.981899 0.000000 -0.000000 24.279100 -3.499200 8.193100 -12.668000 -8.020200 2.296400 -6.151300 7.163000 9.941900 -9.120500 -21.150200 -19.807100 12.137700 24.648100 0.005000 4.247800 29.339100 0.001000 0.003900 15.692100 0.000300 0.002100 34.889801 0.001600 -0.180600 31.436100 0.001200 0.004100 21.431101 0.000500 0.002900 36.214802 0.001700 -2.586400 42.045399 0.002000 0.005300 16.160999 0.000300 0.002200 31.833401 -0.207800 -0.433300 28.396799 0.001000 0.003800 20.252300 0.000500 0.002700 -26.500999 4.501600 7.048300 12.043500 7.888300 3.505600 5.841700 1.339700 -6.994700 -2.674500 0.000000 -0.000000 0.617000 -5.625100 5.573400 25.493200 9.971000 -1.433200 -17.774000 5.669000 -10.477000 -5.501100 -0.000000 -0.000000 
-0.145092 0.717806 0.762639 -28.968399 -1.549800 0.494500 3.913000 2.430200 1.028700 0.582600 0.616900 -0.023400 0.587300 0.613600 -0.019500 -2.014200 -0.769000 -0.514400 -0.000000 0.000000 -0.000000 -3.564700 -8.963000 2.985800 -17.689800 0.078700 3.246200 -65.557503 -3.791400 17.479700 0.000000 -0.000000 -5.489800 -7.409100 4.494700 23.657400 3.827700 -2.715700 4.256200 5.307300 6.497300 4.769800 21.794201 -13.510000 -31.768400 -30.264299 0.002500 2.905600 -36.624100 0.003000 -0.008900 -14.677200 0.000500 -0.003800 -17.679100 0.172300 -0.552700 -39.083698 0.003400 -0.009500 -18.260599 0.000800 -0.004700 -39.683498 0.004000 5.801100 -32.145599 0.002300 -0.008000 -17.057301 0.000600 -0.004400 -40.361500 -0.584200 3.662200 -38.638302 0.003300 -0.009400 -25.641199 0.001500 -0.006500 18.954800 1.867900 3.815800 46.556000 10.104300 26.424801 -0.000000 0.000000 25.389099 -4.230500 9.015500 -12.331800 -8.020300 2.296400 -6.151300 7.251500 9.964800 -9.274000 -20.948000 -19.589399 12.068300 24.723200 0.005000 4.109100 29.338100 0.001000 0.003900 15.729900 0.000300 0.002200 34.976101 0.001600 -0.308700 31.474899 0.001200 0.004100 21.409901 0.000600 0.002900 36.182999 0.001700 -2.658900 42.275501 0.002000 0.005300 16.118401 0.000300 0.002200 31.805500 -0.197600 -0.572900 28.440701 0.001000 0.003800 20.207100 0.000500 0.002700 -29.544701 4.904700 8.817200 5.866800 7.377200 2.612200 0.016700 0.948900 -8.562300 -3.162600 -0.000000 -0.000000 2.120900 -5.673000 5.421600 27.447201 9.839200 -1.357900 -21.200600 7.102600 -10.187100 -6.072200 0.000000 -0.000000 
